HIERARCHY
ROOT Hips
{
	OFFSET 0.000000 0.000000 0.000000 
	CHANNELS 6 Xposition Yposition Zposition Yrotation Zrotation Xrotation 
	JOINT Lumbar
	{
		OFFSET 0.000000 0.000000 0.000000 
		CHANNELS 3 Zrotation Xrotation Yrotation
		JOINT Neck
		{
			OFFSET 0.000000 0.445665 0.000000 
			CHANNELS 3 Zrotation Xrotation Yrotation
			End Site
			{
				OFFSET 0.000000 0.227535 0.000000 
			}
		}
		JOINT RightShoulder
		{
			OFFSET 0.019635 0.377685 0.194865 
			CHANNELS 3 Zrotation Xrotation Yrotation
			JOINT RightElbow
			{
				OFFSET 0.000000 -0.243375 0.000000 
				CHANNELS 2 Zrotation Yrotation
				JOINT RightWrist
				{
					OFFSET 0.000000 -0.264825 0.000000 
					CHANNELS 2 Zrotation Xrotation
					End Site
					{
						OFFSET 0.006600 -0.176220 0.000990 
					}
				}
			}
		}
		JOINT LeftShoulder
		{
			OFFSET 0.019635 0.377685 -0.194865 
			CHANNELS 3 Zrotation Xrotation Yrotation
			JOINT LeftElbow
			{
				OFFSET 0.000000 -0.243375 0.000000 
				CHANNELS 2 Zrotation Yrotation
				JOINT LeftWrist
				{
					OFFSET 0.000000 -0.264825 0.000000 
					CHANNELS 2 Zrotation Xrotation
					End Site
					{
						OFFSET 0.006600 -0.176220 -0.000990 
					}
				}
			}
		}
	}
	JOINT RightHip
	{
		OFFSET 0.052140 -0.069960 0.075570 
		CHANNELS 3 Zrotation Xrotation Yrotation
		JOINT RightKnee
		{
			OFFSET 0.000000 -0.402270 0.000000 
			CHANNELS 1 Zrotation
			JOINT RightAnkle
			{
				OFFSET 0.000000 -0.404085 0.000000 
				CHANNELS 3 Zrotation Xrotation Yrotation
				End Site
				{
					OFFSET 0.204105 -0.089430 0.008415 
				}
			}
		}
	}
	JOINT LeftHip
	{
		OFFSET 0.052140 -0.069960 -0.075570 
		CHANNELS 3 Zrotation Xrotation Yrotation
		JOINT LeftKnee
		{
			OFFSET 0.000000 -0.402270 0.000000 
			CHANNELS 1 Zrotation
			JOINT LeftAnkle
			{
				OFFSET 0.000000 -0.404085 0.000000 
				CHANNELS 3 Zrotation Xrotation Yrotation
				End Site
				{
					OFFSET 0.204105 -0.089430 -0.008415 
				}
			}
		}
	}
}
MOTION
Frames: 25
Frame Time: 0.02
0.00025 -9e-05 -0.00174 23.93418 -20.68782 -6.13312 43.30807 2.63711 -7.09602 -10.67014 -1.69348 -0.44186 -21.97417 -15.71827 8.60713 41.73325 137.04236 15.35603 8.40126 -29.25797 13.43026 -5.53745 38.07376 -162.40591 27.88168 -10.90132 33.93377 1.76079 -10.71258 -20.7726 -7.97676 -4.7587 -3.22307 34.84491 6.81699 1.72408 -26.81552 -10.18695 5.58481 3.81549
0.00061 -5e-05 -0.00131 24.19257 -20.64306 -6.16802 43.30846 2.58126 -6.92503 -10.77606 -1.68806 -0.44224 -22.40658 -15.68653 8.36455 41.50486 135.10385 15.03374 8.06212 -29.45607 13.72783 -5.73781 38.2862 -156.16674 26.22011 -9.91465 33.83458 1.77929 -10.88619 -20.76879 -7.97702 -4.76134 -3.22616 34.80595 6.97512 2.15297 -26.80662 -10.10822 5.52359 3.77875
0.00097 -1e-05 -0.00089 24.45054 -20.5984 -6.20285 43.30883 2.52549 -6.75445 -10.88172 -1.68271 -0.44262 -22.83793 -15.65491 8.12268 41.27715 133.17117 14.71245 7.72397 -29.65348 14.02468 -5.93745 38.49838 -149.94662 24.56366 -8.93101 33.73562 1.7978 -11.05946 -20.76499 -7.97729 -4.76399 -3.22926 34.76714 7.13284 2.58035 -26.79776 -10.02972 5.46254 3.7421
0.00133 3e-05 -0.00046 24.70819 -20.55377 -6.23765 43.30922 2.4698 -6.58397 -10.98732 -1.67732 -0.443 -23.26909 -15.62327 7.88083 41.04947 131.23885 14.39122 7.38591 -29.85096 14.32136 -6.13718 38.71021 -143.72663 22.9072 -7.94738 33.63673 1.81624 -11.23256 -20.76119 -7.97755 -4.76663 -3.23234 34.7283 7.29049 3.00789 -26.78889 -9.95124 5.40151 3.70548
0.00169 7e-05 -3e-05 24.96613 -20.50903 -6.27249 43.30962 2.41405 -6.41311 -11.09317 -1.67181 -0.44337 -23.70109 -15.59151 7.63831 40.82107 129.30008 14.06882 7.04674 -30.04916 14.61872 -6.33765 38.9222 -137.48768 21.24565 -6.96072 33.53764 1.83466 -11.40596 -20.75739 -7.9778 -4.76925 -3.23542 34.68931 7.44853 3.43704 -26.77997 -9.87254 5.34032 3.66876
0.00205 0.00011 0.0004 25.22416 -20.46455 -6.30731 43.30992 2.35825 -6.24314 -11.19841 -1.66681 -0.44375 -24.13099 -15.56018 7.39784 40.59481 127.37993 13.74979 6.71071 -30.24489 14.91449 -6.53551 39.13478 -131.3075 19.59999 -5.98349 33.43896 1.85336 -11.57895 -20.75359 -7.97808 -4.77196 -3.23854 34.65086 7.60557 3.86069 -26.77122 -9.79446 5.27956 3.63228
0.00241 0.00015 0.00082 25.48168 -20.41962 -6.34214 43.31046 2.30262 -6.07158 -11.30475 -1.66082 -0.44413 -24.56489 -15.52801 7.15346 40.36462 125.42634 13.42479 6.36906 -30.44538 15.21307 -6.73843 39.34584 -125.0162 17.92425 -4.98843 33.33958 1.87145 -11.75252 -20.74979 -7.9783 -4.77449 -3.24156 34.61136 7.76441 4.29487 -26.76216 -9.71522 5.21802 3.59536
0.00277 0.00019 0.00125 25.73975 -20.37506 -6.37696 43.31069 2.2468 -5.90144 -11.4101 -1.65566 -0.44451 -24.99465 -15.49663 6.91279 40.13782 123.5001 13.10445 6.03201 -30.64147 15.50914 -6.93665 39.55849 -118.82679 16.2761 -4.00969 33.24081 1.89014 -11.92563 -20.74599 -7.97859 -4.77719 -3.24468 34.57282 7.92167 4.71945 -26.75336 -9.63704 5.15717 3.55884
0.00313 0.00023 0.00169 25.99836 -20.33111 -6.41176 43.31089 2.19087 -5.73312 -11.51418 -1.65186 -0.44488 -25.42138 -15.46614 6.67612 39.91598 121.6203 12.79306 5.70271 -30.83227 15.802 -7.12934 39.77247 -112.76158 14.66159 -3.05095 33.14285 1.90944 -12.09801 -20.74221 -7.97893 -4.78008 -3.24791 34.53551 8.07678 5.132 -26.74499 -9.56016 5.09723 3.52283
0.00348 0.00028 0.00208 26.25346 -20.28413 -6.44665 43.31231 2.13592 -5.5546 -11.62539 -1.6413 -0.44527 -25.87169 -15.4303 6.41483 39.66804 119.51236 12.43993 5.33521 -31.05379 16.11292 -7.3545 39.97698 -105.98055 12.85322 -1.97728 33.04042 1.92485 -12.2741 -20.73835 -7.97887 -4.78184 -3.2505 34.49131 8.2436 5.6129 -26.73445 -9.47582 5.03225 3.48394
0.00384 0.0003 0.00257 26.51615 -20.24325 -6.48137 43.31052 2.0787 -5.39745 -11.72166 -1.64432 -0.44563 -26.26826 -15.40592 6.20653 39.47362 117.86095 12.16863 5.04428 -31.21032 16.38595 -7.51072 40.20256 -100.71102 11.45417 -1.14607 32.94735 1.94871 -12.44262 -20.73465 -7.97972 -4.786 -3.25445 34.46151 8.38609 5.95014 -26.72832 -9.40722 4.9778 3.45109
0.00423 0.00029 0.0033 26.79857 -20.22158 -6.51545 43.30484 2.01698 -5.29999 -11.77574 -1.69021 -0.44593 -26.54725 -15.41163 6.13626 39.43987 117.68521 12.17697 4.99965 -31.18794 16.55254 -7.47962 40.47772 -99.6189 11.18669 -0.98675 32.88097 1.99399 -12.58785 -20.73134 -7.98257 -4.79664 -3.26208 34.47288 8.45773 5.88331 -26.73574 -9.38246 4.9535 3.43549
0.00461 0.00026 0.00413 27.0888 -20.20563 -6.54936 43.29491 1.9527 -5.22341 -11.81499 -1.74853 -0.44622 -26.76572 -15.42892 6.12045 39.45699 117.9319 12.25848 5.02609 -31.10017 16.68161 -7.3791 40.77543 -100.03943 11.32884 -1.06976 32.82397 2.04806 -12.72577 -20.72818 -7.98644 -4.80972 -3.27111 34.49859 8.5054 5.67311 -26.7473 -9.37355 4.93964 3.4259
0.00499 0.00023 0.00494 27.37617 -20.18533 -6.58352 43.28388 1.88843 -5.13707 -11.86186 -1.79774 -0.44652 -26.99367 -15.44206 6.08469 39.4422 117.83287 12.26896 4.99518 -31.04298 16.82938 -7.30897 41.06841 -99.74776 11.27784 -1.03748 32.76181 2.09926 -12.86884 -20.72501 -7.99014 -4.82171 -3.27953 34.51642 8.56703 5.53616 -26.75604 -9.35677 4.92004 3.41305
0.00539 0.0002 0.00564 27.66068 -20.17215 -6.61707 43.28617 1.8289 -5.05345 -11.90517 -1.86231 -0.44677 -27.30177 -15.45131 6.0293 39.46592 118.36174 12.43404 5.06643 -30.98298 16.96987 -7.24303 41.33879 -99.56193 11.25647 -1.02711 32.70278 2.14578 -13.00481 -20.72168 -7.99252 -4.83356 -3.28782 34.53925 8.61681 5.36861 -26.76883 -9.3422 4.90424 3.40218
0.00575 0.00018 0.0066 27.95295 -20.14583 -6.65168 43.25907 1.75905 -4.96718 -11.95217 -1.89693 -0.44714 -27.42333 -15.47045 6.02703 39.41989 117.71051 12.30078 4.94645 -30.91215 17.11696 -7.15262 41.66078 -99.51643 11.27139 -1.029 32.64029 2.20409 -13.15308 -20.71862 -7.99801 -4.84636 -3.29675 34.55603 8.68419 5.22596 -26.77409 -9.32757 4.88355 3.38894
0.00609 0.00016 0.00821 28.2656 -20.07913 -6.69096 43.15686 1.65995 -4.88473 -12.01441 -1.85326 -0.44779 -27.08946 -15.5221 6.16388 39.18275 113.45709 11.2707 4.24004 -30.83739 17.28834 -7.00572 42.12648 -99.46375 11.27678 -1.00061 32.55899 2.29292 -13.34386 -20.71707 -8.01085 -4.86052 -3.30684 34.54466 8.81839 5.23052 -26.75834 -9.30177 4.84194 3.36471
0.00639 0.00015 0.01007 28.58598 -19.99957 -6.73101 43.02398 1.55089 -4.79571 -12.08033 -1.77757 -0.44859 -26.56153 -15.5818 6.3513 38.8715 108.04517 9.94778 3.34614 -30.75195 17.46803 -6.83776 42.64203 -99.50415 11.30602 -0.97702 32.47529 2.39316 -13.54617 -20.71563 -8.02699 -4.87567 -3.31759 34.52846 8.96899 5.25802 -26.73488 -9.27655 4.79582 3.33836
0.00668 0.00013 0.01184 28.90181 -19.92759 -6.76962 42.90225 1.44719 -4.69922 -12.14395 -1.71167 -0.44935 -26.09316 -15.63256 6.51161 38.58441 103.3223 8.79546 2.56522 -30.66509 17.64624 -6.68331 43.13041 -99.51753 11.33067 -0.9543 32.39713 2.48826 -13.73855 -20.71366 -8.04225 -4.89081 -3.32823 34.51932 9.1038 5.24534 -26.71425 -9.25589 4.75512 3.31506
0.00708 0.00011 0.01353 29.22084 -19.84824 -6.81286 42.7934 1.33954 -4.6482 -12.21079 -1.66646 -0.44994 -25.74388 -15.70606 6.69081 38.33734 97.93198 7.48868 1.67042 -30.60322 17.81433 -6.50965 43.63885 -99.51929 11.34399 -0.92713 32.30009 2.58399 -13.9498 -20.7138 -8.05487 -4.90419 -3.33811 34.48899 9.27237 5.34918 -26.69602 -9.21594 4.70111 3.28351
0.00723 0.0001 0.01544 29.53674 -19.78142 -6.8466 42.64893 1.23821 -4.49989 -12.27066 -1.5702 -0.451 -25.10087 -15.73388 6.84251 37.9911 93.64609 6.43141 0.96623 -30.48666 18.00487 -6.37209 44.11678 -99.54756 11.38033 -0.90727 32.24219 2.68036 -14.12546 -20.70944 -8.07382 -4.92143 -3.34972 34.50291 9.37557 5.22277 -26.67167 -9.21546 4.67292 3.26813
0.00673 0.00012 0.01789 29.82734 -19.75039 -6.85437 42.42693 1.1532 -4.09109 -12.32129 -1.34226 -0.45266 -23.69752 -15.6346 6.90144 37.36784 92.73651 6.14937 0.84386 -30.23009 18.26448 -6.3382 44.49967 -99.6194 11.47983 -0.90465 32.28959 2.78096 -14.19178 -20.69404 -8.10911 -4.94925 -3.36587 34.62855 9.28791 4.41199 -26.62559 -9.32905 4.72306 3.3015
0.00597 0.00014 0.02054 30.11775 -19.73322 -6.85253 42.16774 1.07568 -3.58357 -12.36247 -1.06374 -0.45491 -22.005 -15.48906 6.93181 36.65111 92.96835 6.1256 0.91772 -29.9176 18.54455 -6.342 44.84915 -99.70811 11.59849 -0.90831 32.37764 2.88071 -14.22308 -20.67397 -8.15082 -4.98091 -3.38377 34.80164 9.13515 3.37787 -26.57483 -9.48123 4.79807 3.35045
0.00528 0.00014 0.0231 30.41725 -19.7104 -6.85475 41.91681 0.99696 -3.11647 -12.40134 -0.8073 -0.4573 -20.44301 -15.3637 6.97755 35.99077 92.64701 5.97344 0.89499 -29.62556 18.80991 -6.32955 45.21366 -99.78628 11.70286 -0.90905 32.44848 2.97746 -14.27631 -20.655 -8.18972 -5.01063 -3.40088 34.95979 9.01651 2.4743 -26.5306 -9.61229 4.85792 3.38997
0.00478 0.0002 0.02565 30.67692 -19.68255 -6.8581 41.70107 0.90817 -2.66673 -12.46963 -0.55341 -0.45797 -18.87779 -15.24126 7.01382 35.26883 92.43045 5.85699 0.89674 -29.35413 19.09977 -6.31231 45.5831 -99.88184 11.83228 -0.91048 32.51148 3.08925 -14.30607 -20.63988 -8.22792 -5.04103 -3.41789 35.08721 8.87945 1.44694 -26.46757 -9.75872 4.93443 3.4396
